<?xml version="1.0"?>
<svg xmlns="http://www.w3.org/2000/svg" version="1.1">
<g id="Assembly_Home_Cat_Dog" 
>
		<rect id="Brick_8_1_2_green" width="240" height="20" fill="#6b8e23"
		 transform="translate(0, 160)"
		/>
		<g id="Door" 
		 transform="translate(0, 40)"
		>
				<g id="DoorBrick_4_6_2_yellow" 
				 transform="translate(0, 0)"
				>
					<rect y="0" width="120" height="5" fill="#ffff00"/>
					<rect y="115" width="120" height="5" fill="#ffff00"/>
					<rect x="0" height="120" width="5" fill="#ffff00"/>
					<rect x="115" height="120" width="5" fill="#ffff00"/>
				</g>
				<g id="Door_4_6" 
				 transform="translate(0, 0)"
				>
					<rect x="3" y="3" width="114" height="114" fill="#8b4513" />
				</g>
		</g>
		<rect id="Brick_2_2_2_light_green" width="60" height="40" fill="#9acd32"
		 transform="translate(120, 120)"
		/>
		<rect id="Brick_2_4_1_light_blue" width="60" height="80" fill="#add8e6"
		 transform="translate(180, 80)"
		/>
		<rect id="Brick_2_2_2_red" width="60" height="40" fill="#ff0000"
		 transform="translate(120, 40)"
		/>
		<rect id="Brick_2_2_2_orange" width="60" height="40" fill="#ffa500"
		 transform="translate(120, 80)"
		/>
	<g transform="matrix(-1 0 0 1 90 0)">
		<path id="RBrick_2_2_2_red" fill="#ff0000" stroke-width="0" 
			d="M 0 0 L 60 0 L 90 40 L 0 40 z"
		 transform="translate(0, 0)"
		/>
	</g>
		<path id="RBrick_2_2_2_red" fill="#ff0000" stroke-width="0" 
			d="M 0 0 L 60 0 L 90 40 L 0 40 z"
		 transform="translate(90, 0)"
		/>
</g>
</svg>
